PathFileType	4	(X/Y/Z)	/home/nbianco/projects/addbio/data/HamnerRunning2013/Processed/subject02//results/MarkerData/run500.trc
DataRate	CameraRate	NumFrames	NumMarkers	Units	OrigDataRate	OrigDataStartFrame	OrigNumFrames
120.005	120.005	10	42	m	120.005	59	236
Frame#	Time	C7			CLAV			LACR			LASI			LCAL			LFAradius			LFAsuperior			LFAulna			LLEL			LMEL			LMT5			LPSI			LTB1			LTB2			LTB3			LTH1			LTH2			LTH3			LTOE			LUA1			LUA2			LUA3			RACR			RASI			RCAL			RFAradius			RFAsuperior			RFAulna			RLEL			RMEL			RMT5			RPSI			RTB1			RTB2			RTB3			RTH1			RTH2			RTH3			RTOE			RUA1			RUA2			RUA3		
		X1	Y1	Z1	X2	Y2	Z2	X3	Y3	Z3	X4	Y4	Z4	X5	Y5	Z5	X6	Y6	Z6	X7	Y7	Z7	X8	Y8	Z8	X9	Y9	Z9	X10	Y10	Z10	X11	Y11	Z11	X12	Y12	Z12	X13	Y13	Z13	X14	Y14	Z14	X15	Y15	Z15	X16	Y16	Z16	X17	Y17	Z17	X18	Y18	Z18	X19	Y19	Z19	X20	Y20	Z20	X21	Y21	Z21	X22	Y22	Z22	X23	Y23	Z23	X24	Y24	Z24	X25	Y25	Z25	X26	Y26	Z26	X27	Y27	Z27	X28	Y28	Z28	X29	Y29	Z29	X30	Y30	Z30	X31	Y31	Z31	X32	Y32	Z32	X33	Y33	Z33	X34	Y34	Z34	X35	Y35	Z35	X36	Y36	Z36	X37	Y37	Z37	X38	Y38	Z38	X39	Y39	Z39	X40	Y40	Z40	X41	Y41	Z41	X42	Y42	Z42

60	0.658333	0.876645	1.52642	-0.660847	1.00102	1.433	-0.606203	0.979492	1.46871	-0.82035	0.893102	1.02856	-0.771008	0.474479	0.139394	-0.633429	1.12181	1.19439	-0.760897	1.03636	1.14211	-0.908507	1.15658	1.13593	-0.784963	0.953436	1.12031	-0.962311	0.892362	1.09756	-0.901599	0.615572	0.056211	-0.713937	0.728348	1.06967	-0.652841	0.788215	0.352654	-0.699256	0.709144	0.293558	-0.738081	0.656077	0.202833	-0.662723	0.80994	0.821737	-0.816742	0.865726	0.694881	-0.808493	0.799909	0.584219	-0.776172	0.697811	0.0662581	-0.629871	0.981343	1.37284	-0.892038	0.999194	1.30299	-0.881739	0.910891	1.27826	-0.909615	0.937894	1.50659	-0.480622	0.92533	1.01168	-0.510057	0.694218	0.511826	-0.589223	0.849018	1.09963	-0.416844	0.737111	1.21215	-0.33283	0.815384	1.0717	-0.358837	0.662803	1.29244	-0.334651	0.635899	1.29268	-0.413602	0.71188	0.339991	-0.511917	0.735345	1.05631	-0.57281	1.04277	0.500628	-0.601139	0.977851	0.499856	-0.527341	0.91852	0.417483	-0.596158	0.912048	0.851977	-0.469479	1.02608	0.8016	-0.484973	1.02839	0.676609	-0.506031	0.754399	0.28619	-0.603686	0.868812	1.43267	-0.398023	0.824445	1.35375	-0.396736	0.75621	1.39239	-0.377846
61	0.666667	0.876168	1.53168	-0.659626	1.00055	1.44049	-0.602442	0.981802	1.4763	-0.816589	0.895926	1.02966	-0.772702	0.438007	0.151296	-0.63486	1.12216	1.21263	-0.75602	1.04108	1.15287	-0.903496	1.15937	1.15491	-0.7782	0.959249	1.12699	-0.957308	0.897868	1.10455	-0.896409	0.574662	0.0582539	-0.713528	0.731409	1.07282	-0.654061	0.754998	0.355357	-0.700006	0.674268	0.298827	-0.738629	0.619263	0.208726	-0.662955	0.803737	0.823808	-0.815639	0.851315	0.694075	-0.80756	0.77741	0.587269	-0.774639	0.656981	0.0657827	-0.630256	0.985709	1.38015	-0.887569	1.00372	1.31083	-0.877034	0.916441	1.28525	-0.905549	0.933384	1.51294	-0.478607	0.927559	1.01831	-0.511895	0.717361	0.480325	-0.59055	0.835958	1.11133	-0.416798	0.724006	1.22739	-0.336394	0.801461	1.08503	-0.358385	0.650485	1.30765	-0.340987	0.627872	1.30752	-0.421136	0.754685	0.31161	-0.513242	0.73792	1.06109	-0.573353	1.06597	0.507481	-0.601147	1.00053	0.500061	-0.527311	0.941066	0.417836	-0.596047	0.917267	0.861613	-0.46776	1.0323	0.815479	-0.484125	1.03982	0.690878	-0.504727	0.804061	0.263416	-0.604827	0.862058	1.44248	-0.397682	0.816478	1.36434	-0.39735	0.748278	1.40459	-0.381301
62	0.675	0.875781	1.53737	-0.658482	0.999798	1.44848	-0.598506	0.983685	1.48429	-0.813138	0.899774	1.03113	-0.774901	0.403505	0.164594	-0.63627	1.1214	1.23054	-0.751604	1.04474	1.16349	-0.898957	1.16074	1.17341	-0.771688	0.964338	1.13401	-0.952423	0.902527	1.11207	-0.89156	0.534522	0.0609265	-0.713155	0.735025	1.07632	-0.655864	0.722284	0.360561	-0.701063	0.640238	0.306412	-0.739673	0.583794	0.21645	-0.663501	0.79921	0.826865	-0.814649	0.837356	0.695282	-0.806414	0.755287	0.592707	-0.773379	0.616886	0.0652025	-0.630719	0.989104	1.38783	-0.883474	1.00767	1.31897	-0.872149	0.920989	1.2923	-0.901958	0.929347	1.51985	-0.476798	0.929881	1.02545	-0.513647	0.743733	0.448081	-0.593008	0.824264	1.1231	-0.416781	0.711792	1.24252	-0.340352	0.788544	1.09829	-0.358342	0.639476	1.32299	-0.348009	0.621878	1.32218	-0.429425	0.799682	0.284943	-0.514907	0.741037	1.06611	-0.574328	1.08786	0.513636	-0.600594	1.02273	0.499031	-0.527215	0.962657	0.417214	-0.59583	0.92249	0.871564	-0.465912	1.03786	0.828827	-0.483104	1.04963	0.704662	-0.503219	0.855507	0.242747	-0.605672	0.855936	1.45307	-0.397724	0.809323	1.37544	-0.398525	0.741018	1.41706	-0.386058
63	0.683333	0.875509	1.54328	-0.657406	0.998697	1.45657	-0.594575	0.985364	1.49255	-0.80987	0.904723	1.03293	-0.776951	0.371558	0.179053	-0.637517	1.11977	1.24781	-0.747671	1.04769	1.17399	-0.894555	1.16089	1.19116	-0.765458	0.96876	1.1413	-0.947732	0.906539	1.11982	-0.887077	0.495179	0.0642108	-0.71291	0.739192	1.08017	-0.658241	0.690712	0.368158	-0.70269	0.607427	0.316302	-0.741245	0.550506	0.225807	-0.664867	0.795758	0.830635	-0.813765	0.823958	0.698326	-0.805111	0.734082	0.600461	-0.772739	0.577476	0.0643273	-0.631217	0.991817	1.39587	-0.87987	1.01104	1.32725	-0.867374	0.924431	1.29957	-0.898969	0.925932	1.52698	-0.475167	0.932174	1.03292	-0.515203	0.773335	0.415698	-0.596222	0.814109	1.13476	-0.416675	0.700467	1.2571	-0.344617	0.776689	1.11119	-0.358747	0.629713	1.33803	-0.355523	0.617004	1.33638	-0.437957	0.846516	0.26013	-0.516895	0.744534	1.07149	-0.575782	1.10858	0.518767	-0.599458	1.0447	0.496662	-0.526991	0.984043	0.415197	-0.595475	0.927746	0.881697	-0.463986	1.04281	0.841274	-0.481924	1.0578	0.717439	-0.501539	0.908275	0.224521	-0.606555	0.85047	1.46404	-0.398074	0.802875	1.38677	-0.399921	0.734462	1.42967	-0.39186
64	0.691667	0.875334	1.54916	-0.656349	0.997347	1.4644	-0.590868	0.987017	1.50091	-0.806666	0.910659	1.03505	-0.778093	0.34302	0.194751	-0.63877	1.11753	1.26419	-0.744221	1.05013	1.18449	-0.890173	1.16012	1.20794	-0.759549	0.972466	1.14883	-0.943318	0.90991	1.12763	-0.882947	0.45655	0.0682872	-0.71295	0.743843	1.08438	-0.661075	0.660846	0.378048	-0.70484	0.576188	0.328539	-0.743221	0.520093	0.236564	-0.667426	0.792607	0.835082	-0.813011	0.811269	0.702889	-0.803639	0.714304	0.610284	-0.772707	0.538457	0.0631237	-0.631771	0.994153	1.40417	-0.876692	1.01384	1.33554	-0.863017	0.926966	1.30715	-0.896421	0.92311	1.53403	-0.473703	0.934501	1.04065	-0.516437	0.805906	0.383597	-0.599625	0.80556	1.14609	-0.416372	0.690211	1.2709	-0.349113	0.766024	1.12347	-0.359494	0.621115	1.35235	-0.363295	0.6127	1.34974	-0.446307	0.895017	0.237147	-0.519198	0.748416	1.07733	-0.577758	1.1282	0.522569	-0.597915	1.06655	0.493007	-0.526585	1.00651	0.411168	-0.595022	0.932837	0.891875	-0.462177	1.04714	0.852375	-0.480584	1.06432	0.728612	-0.500093	0.961946	0.209016	-0.607853	0.845612	1.47494	-0.398654	0.797036	1.39803	-0.401261	0.728707	1.4421	-0.39822
65	0.7	0.875252	1.5548	-0.655285	0.995999	1.4717	-0.587514	0.988737	1.50915	-0.803473	0.917228	1.03754	-0.777915	0.319041	0.21201	-0.640476	1.11493	1.27947	-0.741206	1.05201	1.19491	-0.88597	1.15872	1.22351	-0.753995	0.975355	1.15651	-0.939265	0.912451	1.13547	-0.879172	0.418875	0.0737378	-0.713453	0.748786	1.08899	-0.664226	0.633328	0.390155	-0.707087	0.547159	0.343041	-0.745275	0.493106	0.248491	-0.671079	0.789246	0.840439	-0.812545	0.799408	0.708773	-0.802018	0.696327	0.621928	-0.772814	0.499753	0.0620373	-0.632535	0.996329	1.41259	-0.87378	1.01616	1.34378	-0.859313	0.928963	1.31499	-0.894081	0.920732	1.54072	-0.472425	0.936993	1.04849	-0.517326	0.841046	0.352035	-0.602561	0.79859	1.15686	-0.415758	0.681219	1.28375	-0.353678	0.756695	1.13488	-0.360386	0.613626	1.36558	-0.371028	0.608959	1.36189	-0.454185	0.945091	0.215952	-0.52179	0.752651	1.08359	-0.580244	1.14674	0.524878	-0.596212	1.08822	0.488263	-0.525934	1.03133	0.404661	-0.594529	0.937323	0.901877	-0.460723	1.05071	0.86161	-0.47912	1.06905	0.737601	-0.499575	1.01605	0.196398	-0.609783	0.841248	1.48531	-0.399425	0.791742	1.40884	-0.402431	0.723821	1.45389	-0.404616
66	0.708333	0.87528	1.56004	-0.654237	0.9949	1.47825	-0.584516	0.990521	1.51705	-0.800285	0.923905	1.04047	-0.776563	0.300414	0.231147	-0.643036	1.11211	1.29348	-0.738555	1.05316	1.20497	-0.882163	1.15691	1.23768	-0.748835	0.977367	1.1642	-0.935635	0.91396	1.14338	-0.875804	0.382946	0.0815676	-0.714559	0.753756	1.09402	-0.667609	0.608873	0.404244	-0.708695	0.521319	0.359329	-0.746897	0.469785	0.261416	-0.675122	0.785621	0.846957	-0.812602	0.788428	0.715908	-0.800432	0.680395	0.635161	-0.7723	0.461834	0.0622085	-0.633729	0.998455	1.42094	-0.870963	1.01811	1.3519	-0.856348	0.930753	1.323	-0.891818	0.918613	1.54684	-0.471364	0.939669	1.05618	-0.51805	0.878348	0.321179	-0.604486	0.793118	1.16682	-0.414726	0.673582	1.29549	-0.358042	0.74885	1.14521	-0.361179	0.607209	1.37736	-0.37837	0.605975	1.37245	-0.461367	0.996552	0.196628	-0.524584	0.757037	1.09011	-0.583162	1.16414	0.525706	-0.594501	1.10952	0.482707	-0.524955	1.05901	0.3958	-0.593991	0.940672	0.911224	-0.459779	1.05332	0.868468	-0.477642	1.07179	0.743975	-0.500515	1.07005	0.186646	-0.61231	0.837261	1.49474	-0.400372	0.78697	1.4188	-0.403443	0.719774	1.46451	-0.410624
67	0.716667	0.875437	1.56479	-0.653254	0.994146	1.48393	-0.581851	0.992275	1.52442	-0.7971	0.930133	1.04385	-0.774574	0.286587	0.252183	-0.646379	1.10918	1.30604	-0.736203	1.05345	1.2143	-0.878822	1.15475	1.2502	-0.744114	0.978548	1.17165	-0.932472	0.914409	1.15127	-0.872935	0.349859	0.0928908	-0.716311	0.758563	1.09942	-0.671193	0.588024	0.419676	-0.708899	0.499594	0.376452	-0.747574	0.449786	0.275298	-0.67847	0.782026	0.854618	-0.813313	0.778407	0.724115	-0.799268	0.666731	0.649536	-0.770551	0.425648	0.0653044	-0.635427	1.00056	1.42904	-0.868138	1.01978	1.35983	-0.854037	0.932481	1.33106	-0.889655	0.916603	1.55223	-0.470511	0.94236	1.06324	-0.518913	0.917503	0.291168	-0.605181	0.789062	1.17576	-0.413209	0.667287	1.30587	-0.36187	0.742619	1.15429	-0.361606	0.601823	1.38735	-0.38495	0.603779	1.38112	-0.467617	1.04905	0.179418	-0.52741	0.761258	1.09654	-0.586381	1.18021	0.525174	-0.592729	1.13015	0.476544	-0.523556	1.08887	0.385368	-0.593286	0.942492	0.919041	-0.459387	1.05478	0.872611	-0.476331	1.0724	0.747591	-0.502762	1.12343	0.179561	-0.615185	0.833597	1.50296	-0.401449	0.782742	1.42751	-0.404331	0.716439	1.47352	-0.415943
68	0.725	0.875694	1.56896	-0.652364	0.993655	1.48864	-0.579551	0.993869	1.53108	-0.793926	0.935492	1.04756	-0.77255	0.275276	0.274709	-0.64977	1.10627	1.31698	-0.734118	1.05295	1.2226	-0.875869	1.15222	1.26085	-0.739877	0.979017	1.1786	-0.929805	0.913963	1.15892	-0.870673	0.320388	0.10839	-0.718551	0.763168	1.10495	-0.67489	0.570866	0.435358	-0.707313	0.482266	0.393277	-0.747073	0.432124	0.290217	-0.680176	0.778893	0.863009	-0.814562	0.769607	0.732871	-0.798915	0.655637	0.664129	-0.767566	0.392199	0.0729077	-0.637413	1.00261	1.43666	-0.865316	1.02123	1.3674	-0.852172	0.934103	1.33904	-0.887737	0.914629	1.55676	-0.469779	0.94482	1.06916	-0.520094	0.958309	0.262162	-0.604834	0.786363	1.18344	-0.411206	0.662291	1.31459	-0.364848	0.738117	1.16196	-0.3614	0.597419	1.39528	-0.390425	0.602182	1.38772	-0.47268	1.10207	0.164631	-0.530046	0.765071	1.10245	-0.589718	1.19469	0.523374	-0.590682	1.14967	0.469781	-0.521673	1.11943	0.374415	-0.592206	0.942706	0.92422	-0.459568	1.05507	0.874046	-0.475352	1.07108	0.748622	-0.505384	1.17571	0.174908	-0.618045	0.830301	1.50973	-0.402531	0.779121	1.43467	-0.405071	0.713659	1.48064	-0.420362
69	0.733333	0.875976	1.5725	-0.651547	0.993273	1.49237	-0.577672	0.995197	1.53694	-0.79082	0.939835	1.05135	-0.770946	0.263398	0.298104	-0.652092	1.10351	1.32607	-0.732282	1.05183	1.2297	-0.873236	1.14935	1.26939	-0.736148	0.978892	1.18487	-0.927657	0.912841	1.166	-0.869082	0.294434	0.127926	-0.720834	0.767566	1.11028	-0.678422	0.556981	0.450025	-0.70425	0.468684	0.408955	-0.745605	0.415553	0.306236	-0.679922	0.77664	0.871398	-0.816028	0.762583	0.741289	-0.799434	0.647485	0.677541	-0.764082	0.362037	0.0857846	-0.639246	1.00455	1.44361	-0.862618	1.02244	1.37437	-0.850509	0.935474	1.34666	-0.886225	0.912723	1.56035	-0.469012	0.946911	1.07348	-0.521461	1.00053	0.234431	-0.603912	0.784992	1.18963	-0.408759	0.658594	1.32136	-0.36674	0.735425	1.16815	-0.360342	0.593974	1.40096	-0.394528	0.600966	1.39215	-0.476346	1.15498	0.152508	-0.532297	0.768406	1.10743	-0.592908	1.20719	0.520278	-0.588169	1.1675	0.462227	-0.51934	1.14919	0.363724	-0.59059	0.941579	0.925951	-0.460405	1.05433	0.873175	-0.474736	1.06837	0.74745	-0.507176	1.22645	0.172614	-0.620485	0.827501	1.51492	-0.403415	0.776195	1.44001	-0.40558	0.711351	1.48575	-0.423736
